# xmcd
#
# Track frame offsets: 
#        150
#        14550
#        28885
#        51987
#        69132
#        88642
#        104257
#        118712
#        136782
#        155452
#
# Disc length: 2412 seconds
#
# Revision: 0
# Processed by: cddbd v1.5.2PL0 Copyright (c) Steve Scherf et al.
# Submitted via: ExactAudioCopy v0.95b4
#
DISCID=7f096a0a
DTITLE=Kabah - Kabah
DYEAR=1994
DGENRE=Pop
TTITLE0=Lero Lero
TTITLE1=Changuitos en la cara
TTITLE2=Sin complicación
TTITLE3=Encontré el amor
TTITLE4=Nuestro amor
TTITLE5=Al pasar
TTITLE6=Somos tan diferentes
TTITLE7=Y siempre te amaré
TTITLE8=Verano
TTITLE9=Un mundo mejor
EXTD=
EXTT0=
EXTT1=
EXTT2=
EXTT3=
EXTT4=
EXTT5=
EXTT6=
EXTT7=
EXTT8=
EXTT9=
PLAYORDER=
